<?xml version="1.0" encoding="UTF-8"?>
<svg width="114px" height="45px" viewBox="0 0 114 45" version="1.1" xmlns="http://www.w3.org/2000/svg" xmlns:xlink="http://www.w3.org/1999/xlink">
    <!-- Generator: Sketch 49 (51002) - http://www.bohemiancoding.com/sketch -->
    <title>logo_footer_wamiz</title>
    <desc>Created with Sketch.</desc>
    <defs></defs>
    <g id="Page-1" stroke="none" stroke-width="1" fill="none" fill-rule="evenodd">
        <g id="HOME-PAGE" transform="translate(-903.000000, -3112.000000)" fill="#FFFFFF">
            <g id="FOOTER" transform="translate(-16.000000, 3032.000000)">
                <g id="logo_footer_wamiz" transform="translate(919.000000, 80.000000)">
                    <path d="M29.3711543,0.18886 C30.1985829,0.18886 31.0255543,0.75166 31.85344,1.87772667 C31.1361829,26.93446 29.4813257,39.4621267 26.8884114,39.4621267 L26.06144,39.4621267 C23.5800686,39.4621267 20.8216686,34.11226 17.7880686,23.41486 L14.8925257,17.5031267 C12.0239543,33.5499267 9.54212571,41.57426 7.44658286,41.57426 C4.59584,41.57426 2.80338286,37.49186 2.06875429,29.32706 C0.689097143,21.0693933 -0.000274285714,15.0157933 -0.000274285714,11.1681267 L2.48155429,10.3239267 C4.41252571,10.3239267 5.37755429,15.25006 5.37755429,25.10466 C6.13138286,29.88986 6.82029714,32.2829267 7.44658286,32.2829267 C8.27355429,29.1865933 8.96246857,26.6525933 9.51424,24.6813933 C10.5071543,13.7025933 11.61024,8.21272667 12.8239543,8.21272667 L13.2376686,7.78992667 C16.3073829,7.78992667 19.8927543,14.82866 23.9928686,28.9047267 L24.8202971,31.01686 L25.6472686,31.01686 L28.1021257,0.75166 C27.5690971,0.37646 27.9919543,0.18886 29.3711543,0.18886" id="Fill-1"></path>
                    <path d="M44.5235752,20 C47.7620113,21.6370392 49.3803347,23.5685624 49.3803347,25.7931981 L49.7860338,27.0351529 L48.9764248,31.1725636 C48.9764248,34.4649328 49.6505026,38.1889683 51,42.3446699 C50.6041415,43.4480709 50.1993369,44 49.7860338,44 L48.5716203,44 C47.6716571,43.5212346 46.7269642,41.7291798 45.7379887,38.6206345 C42.4091985,41.3798228 39.8461822,42.7589597 38.0475977,42.7589597 C35.9971847,42.7589597 34.6472399,40.8278937 34,36.9657616 C34,30.1240354 36.9682682,24.6065733 42.9048045,20.4138325 L44.5235752,20 Z M38.0475977,36.9657616 L38.0475977,38.2072592 L40.4759775,38.2072592 C43.4442456,36.0923692 44.928827,34.1622178 44.928827,32.4136039 L44.928827,24.5517005 L44.1196653,24.5517005 C40.0716203,27.4947128 38.0475977,31.6321235 38.0475977,36.9657616 Z" id="Fill-4"></path>
                    <path d="M75.7298086,21.9449077 C78.8753086,22.5015231 80.8798259,28.3773692 81.7396362,39.5701385 L81.7396362,40.4055231 C81.0101707,42.6329077 79.7458259,43.7456769 77.9498603,43.7456769 L77.1063431,41.2409077 L77.1063431,38.7347538 C76.900119,30.3818308 76.0566017,26.2044462 74.5771879,26.2044462 C70.2148259,28.7849077 68.530119,34.2144462 69.5235328,42.4930615 L67.4170672,43.7456769 L66.9962397,43.7456769 C66.1531879,43.4678308 65.7309638,42.6329077 65.7309638,41.2409077 C65.7309638,32.7389077 64.8902397,28.0053692 63.2046017,27.0398308 L62.3620155,27.0398308 C59.6098776,30.5678308 58.7668259,35.9969077 59.8351879,43.3284462 C59.0670845,44.4421385 58.0839121,45.0001385 56.8856707,45.0001385 L56.4648431,45.0001385 C56.3335672,44.1642923 55.8475672,36.8512154 55.0045155,23.0590615 C55.1734983,22.2236769 55.6599638,21.6015231 56.4648431,21.1926 C58.150481,21.8429077 58.9926017,22.8176769 58.9926017,24.1169077 L60.25555,24.1169077 C60.25555,23.2252154 61.2391879,22.2509077 63.2046017,21.1926 L64.468481,21.1926 C66.0405328,22.2698308 67.4445328,24.0795231 68.6800155,26.6226 C69.2423603,26.6226 70.2250672,25.5089077 71.6295328,23.2815231 L75.7298086,21.9449077 Z" id="Fill-6"></path>
                    <path d="M86.2001414,24 L86.5992751,24 C87.6658416,24.3756047 88.1989038,25.6419292 88.1989038,27.7999067 L88.1989038,34.132929 C88.6086457,37.2296849 89.2747525,38.777363 90.1989922,38.777363 L93,38.777363 L93,40.0436875 C92.3953324,41.0953808 91.3278819,42.0808183 89.7989745,43 L88.9998232,43 C86.2447843,43 84.3764144,39.9037106 83.3991337,33.7106653 L83,28.2221704 C83,25.4072346 84.0665665,24 86.2001414,24" id="Fill-9"></path>
                    <path d="M98.5722791,15 C105.14431,15 108.429142,16.5472926 108.429142,19.6404793 C108.429142,22.4912459 105.857539,27.6939533 100.714808,35.25 L100.714808,36.5152462 L101.143882,36.5152462 C104.191444,36.2341322 107.6193,35.3893915 111.428871,33.9842876 C113.143273,34.6406865 114,35.2029146 114,35.6714379 L114,37.3590545 C114,38.5399199 108.14404,40.0872125 96.429277,42 C94.1427766,41.6433628 93,40.6592306 93,39.0462048 C99.5710838,29.8403032 102.85781,23.9350439 102.85781,21.3276297 L102.85781,20.9061917 L102.000609,20.0623835 L98.1441523,20.0623835 C95.5720761,20.0623835 94.287222,19.0782513 94.287222,17.1095207 L94.287222,16.6876165 C94.5922151,15.5626942 96.0200938,15 98.5722791,15" id="Fill-11"></path>
                    <path d="M103.851139,4.41452859 C97.8662823,1.24016417 93.1717199,4.39571838 93.1257345,4.42763873 C93.008517,4.50914961 92.9656875,4.69212159 93.0297063,4.84089321 C93.0932743,4.98852481 93.2388945,5.04381541 93.3556612,4.96230452 C93.4007449,4.93095418 97.9032509,1.92075155 103.666296,4.97541467 C103.787571,5.04096538 103.929585,4.96743458 103.980529,4.8123929 C104.033277,4.65735122 103.975119,4.47779927 103.851139,4.41452859" id="Fill-13"></path>
                    <path d="M76.7323515,8.50310756 C76.8757038,8.50687025 76.996061,8.39634142 76.9999751,8.25806281 C77.0019321,8.11884353 76.8884245,8.00408169 76.7436044,8.00031901 C76.6863614,7.99843767 70.8490368,7.91330696 67.0553385,12.5936146 C66.966783,12.7032028 66.9863533,12.8617058 67.1008394,12.9468365 C67.2148363,13.0319672 67.3802051,13.0131538 67.4682714,12.902625 C71.0966008,8.42738356 76.6751085,8.50263723 76.7323515,8.50310756" id="Fill-15"></path>
                    <path d="M76.6731477,5.71154058 C76.7990368,5.74746987 76.9408901,5.69533718 76.9860459,5.59811678 C77.0307457,5.49948738 76.9646083,5.39310852 76.8368947,5.35717924 C76.7867215,5.34344158 71.7023528,3.98728734 66.11534,6.6516901 C66.0008539,6.70523178 65.9652765,6.82182582 66.0373435,6.90988778 C66.1080421,6.99865424 66.2576494,7.02683407 66.3721355,6.9718834 C71.7511577,4.40716678 76.6252551,5.69815517 76.6731477,5.71154058" id="Fill-17"></path>
                    <path d="M93.202028,7.11635064 C93.067833,7.14381692 92.9792919,7.28684886 93.0041941,7.43765429 C93.0277128,7.58845971 93.156374,7.68847843 93.2896467,7.66101215 C93.3431403,7.65064752 98.5246361,6.65046034 102.584151,10.9248354 C102.684682,11.0300364 102.840551,11.0238176 102.934165,10.9123978 C103.025934,10.7999415 103.021322,10.6247792 102.923097,10.5200964 C98.6772772,6.0498298 93.2550604,7.10494954 93.202028,7.11635064" id="Fill-19"></path>
                    <path d="M94.0782645,9.67084651 C92.7804488,11.3368865 90.0376619,11.8616848 87.9632454,10.8388901 C86.4527663,10.0944893 85.9500645,8.80151425 85.7839213,7.94515065 C85.7853454,7.79125593 85.7786996,7.6524913 85.7711045,7.52972136 C87.1814229,6.86961676 90.2189953,4.56422196 87.766247,4.18726635 C87.766247,4.18726635 85.5807519,3.56650001 82.1724428,4.5854041 C79.8094118,5.29176358 83.2044294,7.1583855 84.7130097,7.60796558 C84.7248771,7.72857409 84.7438648,7.867771 84.7694984,8.01777512 C84.7519347,8.88710738 84.4770863,10.2349831 83.1109145,11.184721 C81.2368192,12.4885032 78.437069,12.3588167 76.8710507,10.8963845 C76.6750017,10.7126619 76.3550573,10.7092036 76.153312,10.8873065 C75.9525161,11.0667062 75.9487185,11.358501 76.1433434,11.5409267 C77.341948,12.6618509 79.12775,13.1460141 80.851367,12.9618592 C80.851367,12.9618592 85.0543153,12.2805724 85.4188809,10.1126454 C86.5738135,11.515854 88.7407955,12.2451248 90.4990653,12.2749527 C92.2331256,12.2135677 93.9130707,11.4817032 94.9070817,10.2055874 C95.068478,9.99722436 95.0143628,9.7088879 94.7855598,9.56061293 C94.5586557,9.41320254 94.2396608,9.46205114 94.0782645,9.67084651" id="Fill-21"></path>
                    <path d="M85.2283759,10 C84.8908793,12.3707767 81,13.1169047 81,13.1169047 C81.0795402,14.4531263 81.463179,18.1804563 83.3093032,19.987618 C84.0774596,20.7398927 85.0055754,21.075603 86.0646469,20.9857651 C87.1237184,20.8968728 87.9933875,20.4103292 88.6433322,19.5393738 C90.2064514,17.4452034 90.0469315,13.6984873 89.9313565,12.3651027 C88.3036383,12.3329502 86.2979942,11.5352836 85.2283759,10" id="Fill-23"></path>
                </g>
            </g>
        </g>
    </g>
</svg>